<svg width="22" height="21" viewBox="0 0 22 21" fill="none" xmlns="http://www.w3.org/2000/svg">
<path d="M5 0.0162659C4.34339 0.0162659 3.69321 0.145595 3.08658 0.396868C2.47995 0.648142 1.92876 1.01644 1.46447 1.48073C0.526784 2.41841 0 3.69018 0 5.01627V13.0163C0 14.3423 0.526784 15.6141 1.46447 16.5518C1.92876 17.0161 2.47995 17.3844 3.08658 17.6357C3.69321 17.8869 4.34339 18.0163 5 18.0163H6V16.0163H5C4.20435 16.0163 3.44129 15.7002 2.87868 15.1376C2.31607 14.575 2 13.8119 2 13.0163V5.01627C2 4.22062 2.31607 3.45755 2.87868 2.89495C3.44129 2.33234 4.20435 2.01627 5 2.01627H17C17.7956 2.01627 18.5587 2.33234 19.1213 2.89495C19.6839 3.45755 20 4.22062 20 5.01627V13.0163C20 13.8119 19.6839 14.575 19.1213 15.1376C18.5587 15.7002 17.7956 16.0163 17 16.0163H12.202L13.5 14.7183C13.5955 14.626 13.6717 14.5157 13.7241 14.3937C13.7765 14.2717 13.8041 14.1404 13.8053 14.0077C13.8064 13.8749 13.7811 13.7432 13.7308 13.6203C13.6805 13.4974 13.6063 13.3858 13.5124 13.2919C13.4185 13.198 13.3069 13.1237 13.184 13.0734C13.0611 13.0232 12.9294 12.9979 12.7966 12.999C12.6638 13.0002 12.5326 13.0278 12.4106 13.0802C12.2886 13.1326 12.1782 13.2088 12.086 13.3043L8.373 17.0163L12.086 20.7283C12.2746 20.9104 12.5272 21.0112 12.7894 21.0089C13.0516 21.0067 13.3024 20.9015 13.4878 20.7161C13.6732 20.5307 13.7784 20.2799 13.7807 20.0177C13.783 19.7555 13.6822 19.5029 13.5 19.3143L12.202 18.0163H17C17.6566 18.0163 18.3068 17.8869 18.9134 17.6357C19.52 17.3844 20.0712 17.0161 20.5355 16.5518C20.9998 16.0875 21.3681 15.5363 21.6194 14.9297C21.8707 14.3231 22 13.6729 22 13.0163V5.01627C22 4.35966 21.8707 3.70948 21.6194 3.10285C21.3681 2.49622 20.9998 1.94502 20.5355 1.48073C20.0712 1.01644 19.52 0.648142 18.9134 0.396868C18.3068 0.145595 17.6566 0.0162659 17 0.0162659H5Z" fill="white"/>
</svg>
