<svg width="32" height="33" viewBox="0 0 32 33" fill="none" xmlns="http://www.w3.org/2000/svg">
<path d="M6.55268 0.987579C8.15827 0.440995 9.87165 0.366071 11.5136 0.770646C13.1555 1.17522 14.6656 2.04443 15.8859 3.28732C15.9175 3.31745 15.9584 3.3341 16.0007 3.3341C16.0431 3.3341 16.0839 3.31745 16.1155 3.28732C17.1607 2.22038 18.4221 1.42614 19.8014 0.966555C21.1807 0.506967 22.6405 0.39445 24.0672 0.63778L24.0727 0.639268C25.972 0.971737 27.7315 1.91579 29.1164 3.34551C30.5012 4.77524 31.4458 6.62269 31.824 8.64148V8.64594C32.0968 10.1254 32.052 11.6517 31.6928 13.1099C31.3337 14.5681 30.6697 15.9199 29.7509 17.0634L18.684 31.1745C18.3551 31.5935 17.9445 31.9305 17.481 32.1617C17.0174 32.3928 16.5122 32.5126 16.0007 32.5126C15.4893 32.5126 14.9841 32.3928 14.5205 32.1617C14.057 31.9305 13.6463 31.5935 13.3175 31.1745L2.25337 17.0634C1.33309 15.9205 0.667839 14.5686 0.307951 13.11C-0.051937 11.6515 -0.0970351 10.1244 0.176068 8.64446C0.499273 6.87363 1.26179 5.22843 2.38369 3.88128C3.50559 2.53413 4.94556 1.53464 6.55268 0.987579ZM10.8937 3.67136C10.0281 3.4574 9.13104 3.43207 8.25605 3.5969C7.38106 3.76172 6.54605 4.11332 5.80078 4.63074C5.05551 5.14815 4.41524 5.82079 3.91813 6.60856C3.42102 7.39633 3.07725 8.28311 2.90731 9.21604L2.90592 9.21902C2.71393 10.2577 2.74558 11.3295 2.99847 12.3531C3.25135 13.3768 3.71884 14.3253 4.36546 15.1269L4.37798 15.1418L15.4504 29.2603C15.5181 29.3456 15.6023 29.4141 15.6972 29.4611C15.7921 29.5082 15.8955 29.5325 16 29.5325C16.1046 29.5325 16.208 29.5082 16.3029 29.4611C16.3978 29.4141 16.482 29.3456 16.5496 29.2603L27.636 15.1269C28.2815 14.3258 28.7482 13.3782 29.0011 12.3558C29.2539 11.3333 29.2862 10.2627 29.0955 9.22497C28.8282 7.80062 28.1616 6.4972 27.1845 5.4883C26.2074 4.4794 24.9661 3.81291 23.6261 3.57758C22.6215 3.40626 21.5935 3.48588 20.6225 3.81021C19.6514 4.13454 18.7637 4.69479 18.0286 5.44714L18.0175 5.45905C17.4703 6.00643 16.7492 6.31094 16 6.31094C15.2509 6.31094 14.5297 6.00643 13.9826 5.45905L13.9728 5.44863C13.1137 4.57124 12.051 3.95735 10.8937 3.67136Z" fill="white"/>
</svg>
