<svg width="33" height="33" viewBox="0 0 33 33" fill="none" xmlns="http://www.w3.org/2000/svg">
<path d="M16.5 0.512634C7.67769 0.512634 0.5 7.69033 0.5 16.5126C0.5 25.3349 7.67769 32.5126 16.5 32.5126C25.3223 32.5126 32.5 25.3349 32.5 16.5126C32.5 7.69033 25.3223 0.512634 16.5 0.512634ZM14.0385 21.4357C14.0385 21.7621 13.9088 22.0752 13.678 22.306C13.4472 22.5368 13.1341 22.6665 12.8077 22.6665C12.4813 22.6665 12.1682 22.5368 11.9374 22.306C11.7066 22.0752 11.5769 21.7621 11.5769 21.4357V11.5896C11.5769 11.2631 11.7066 10.9501 11.9374 10.7193C12.1682 10.4885 12.4813 10.3588 12.8077 10.3588C13.1341 10.3588 13.4472 10.4885 13.678 10.7193C13.9088 10.9501 14.0385 11.2631 14.0385 11.5896V21.4357ZM21.4231 21.4357C21.4231 21.7621 21.2934 22.0752 21.0626 22.306C20.8318 22.5368 20.5187 22.6665 20.1923 22.6665C19.8659 22.6665 19.5528 22.5368 19.322 22.306C19.0912 22.0752 18.9615 21.7621 18.9615 21.4357V11.5896C18.9615 11.2631 19.0912 10.9501 19.322 10.7193C19.5528 10.4885 19.8659 10.3588 20.1923 10.3588C20.5187 10.3588 20.8318 10.4885 21.0626 10.7193C21.2934 10.9501 21.4231 11.2631 21.4231 11.5896V21.4357Z" fill="white"/>
</svg>
